<svg width="122" height="99" viewBox="0 0 122 99" fill="none" xmlns="http://www.w3.org/2000/svg">
<path d="M2.6709 50.2096C2.6709 22.5954 25.0567 0.209595 52.6709 0.209595H121.733V48.0253C121.733 75.6395 99.3468 98.0253 71.7326 98.0253H2.6709V50.2096Z" fill="#25C7CA"/>
<path d="M0.231445 50.2096C0.231445 22.5954 22.6172 0.209595 50.2315 0.209595H119.293V48.0253C119.293 75.6395 96.9073 98.0253 69.2931 98.0253H0.231445V50.2096Z" fill="#531A80"/>
<path d="M60.9818 47.5891C64.337 47.5891 67.0569 44.852 67.0569 41.4756C67.0569 38.0992 64.337 35.3621 60.9818 35.3621C57.6266 35.3621 54.9067 38.0992 54.9067 41.4756C54.9067 44.852 57.6266 47.5891 60.9818 47.5891Z" stroke="white" stroke-linecap="round" stroke-linejoin="round"/>
<path d="M73.1319 47.5891C68.5756 58.2877 60.9818 70.5146 60.9818 70.5146C60.9818 70.5146 53.388 58.2877 48.8316 47.5891C44.2753 36.8905 51.8692 27.7203 60.9818 27.7203C70.0944 27.7203 77.6882 36.8905 73.1319 47.5891Z" stroke="white" stroke-linecap="round" stroke-linejoin="round"/>
</svg>
