<svg width="50" height="32" viewBox="0 0 50 32" fill="none" xmlns="http://www.w3.org/2000/svg">
<path d="M6.2894 0.0279541C3.19392 0.0279541 0.681641 2.40161 0.681641 5.3263V26.5197C0.681641 29.4444 3.19392 31.8181 6.2894 31.8181H43.6745C46.7699 31.8181 49.2822 29.4444 49.2822 26.5197V5.3263C49.2822 2.40161 46.7699 0.0279541 43.6745 0.0279541H6.2894ZM6.2894 3.56019H43.6745C44.7044 3.56019 45.5437 4.35317 45.5437 5.3263V6.20936L24.9819 16.6966L4.42015 6.20936V5.3263C4.42015 4.35317 5.25944 3.56019 6.2894 3.56019ZM4.42015 6.70564L16.6282 15.7022L4.6538 27.2933L19.2583 17.4684L24.9819 20.9458L30.7075 17.4684L45.3101 27.2933L33.3356 15.7022L45.5437 6.70564V26.5197C45.5334 26.7916 45.4532 27.0571 45.3101 27.2933C45.0016 27.8672 44.4016 28.2858 43.6745 28.2858H6.2894C5.56226 28.2858 4.96223 27.8672 4.6538 27.2915C4.51097 27.0559 4.43079 26.791 4.42015 26.5197V6.70564Z" fill="white"/>
</svg>
