<svg width="50" height="50" viewBox="0 0 50 50" fill="none" xmlns="http://www.w3.org/2000/svg">
<g clip-path="url(#clip0_117_51)">
<path fill-rule="evenodd" clip-rule="evenodd" d="M3.77385 23.1863H11.3373C11.4284 20.5055 11.7565 17.9348 12.285 15.5444H5.76648C4.63383 17.9441 3.95797 20.5361 3.77385 23.1863ZM7.53129 12.4877H13.1052C13.6114 10.864 14.2621 9.28953 15.0492 7.78338C15.5744 6.78399 16.1809 5.83009 16.8626 4.93144C13.099 6.50193 9.86097 9.12401 7.53129 12.4877ZM24.9819 0.260742C18.5371 0.260742 12.3562 2.83713 7.79903 7.42313C3.24184 12.0091 0.681641 18.2291 0.681641 24.7147C0.681641 31.2002 3.24184 37.4202 7.79903 42.0062C12.3562 46.5922 18.5371 49.1686 24.9819 49.1686C31.4268 49.1686 37.6076 46.5922 42.1648 42.0062C46.722 37.4202 49.2822 31.2002 49.2822 24.7147C49.2822 18.2291 46.722 12.0091 42.1648 7.42313C37.6076 2.83713 31.4268 0.260742 24.9819 0.260742V0.260742ZM23.4632 3.55285C21.428 4.17643 19.4081 6.05938 17.7313 9.2231C17.2058 10.2135 16.7289 11.3078 16.3098 12.4877H23.4632V3.55285ZM23.4632 15.5444H15.4046C14.8071 18.0504 14.4632 20.6107 14.3779 23.1863H23.4632V15.5444ZM26.5007 23.1863V15.5444H34.5593C35.1273 17.8828 35.4888 20.4597 35.586 23.1863H26.5007ZM23.4632 26.243H14.3809C14.4652 28.8185 14.8082 31.3789 15.4046 33.8849H23.4632V26.243ZM26.5007 33.8849V26.243H35.5829C35.4988 28.8185 35.1558 31.3789 34.5593 33.8849H26.5007ZM23.4632 36.9416H16.3098C16.7289 38.1215 17.2058 39.2158 17.7313 40.2062C19.4081 43.3699 21.4311 45.2498 23.4632 45.8765V36.9416ZM16.8626 44.4979C16.1809 43.5993 15.5743 42.6454 15.0492 41.6459C14.2621 40.1398 13.6114 38.5653 13.1052 36.9416H7.53129C9.86097 40.3053 13.099 42.9274 16.8626 44.4979ZM5.76648 33.8849H12.285C11.7357 31.3724 11.4185 28.8143 11.3373 26.243H3.77385C3.96218 28.9635 4.65778 31.5404 5.76648 33.8849ZM33.1013 44.4979C36.8649 42.9274 40.1029 40.3053 42.4326 36.9416H36.8617C36.3543 38.5654 35.7027 40.1398 34.9147 41.6459C34.3896 42.6454 33.7831 43.5993 33.1013 44.4979ZM33.6541 36.9416H26.5007V45.8765C28.5358 45.2529 30.5558 43.3699 32.2325 40.2062C32.7849 39.1544 33.26 38.0633 33.6541 36.9416ZM37.6788 33.8849H44.1974C45.3061 31.5404 46.0017 28.9635 46.19 26.243H38.6265C38.5454 28.8143 38.2282 31.3724 37.6788 33.8849ZM38.6265 23.1863H46.19C46.0058 20.5361 45.33 17.9442 44.1974 15.5444H37.6788C38.2074 17.9348 38.5354 20.5055 38.6265 23.1863ZM36.8587 12.4877C36.3523 10.8641 35.7016 9.28961 34.9147 7.78338C34.3896 6.78394 33.783 5.83003 33.1013 4.93144C36.8649 6.50193 40.1029 9.12401 42.4326 12.4877H36.8617H36.8587ZM33.6541 12.4877H26.5007V3.55285C28.5358 4.17643 30.5558 6.05938 32.2325 9.2231C32.758 10.2135 33.2349 11.3078 33.6541 12.4877Z" fill="white"/>
</g>
<defs>
<clipPath id="clip0_117_51">
<rect width="48.6006" height="48.9078" fill="white" transform="translate(0.681641 0.260742)"/>
</clipPath>
</defs>
</svg>
