<svg width="122" height="99" viewBox="0 0 122 99" fill="none" xmlns="http://www.w3.org/2000/svg">
<path d="M2.45605 50.6124C2.45605 22.9981 24.8418 0.612366 52.4561 0.612366H121.518V48.428C121.518 76.0423 99.132 98.428 71.5177 98.428H2.45605V50.6124Z" fill="#25C7CA"/>
<path d="M0.0166016 50.6124C0.0166016 22.9981 22.4024 0.612366 50.0166 0.612366H119.078V48.428C119.078 76.0423 96.6925 98.428 69.0783 98.428H0.0166016V50.6124Z" fill="#531A80"/>
<path d="M46.5925 33.2176H54.6926L58.7427 43.4067L53.6801 46.4635C55.8488 50.8887 59.4078 54.4702 63.8052 56.6526L66.8428 51.558L76.9679 55.6337V63.785C76.9679 64.8659 76.5412 65.9026 75.7817 66.6669C75.0221 67.4312 73.992 67.8606 72.9178 67.8606C65.0188 67.3776 57.5685 64.002 51.9727 58.3708C46.3769 52.7397 43.0225 45.2423 42.5425 37.2932C42.5425 36.2123 42.9692 35.1757 43.7287 34.4113C44.4882 33.647 45.5184 33.2176 46.5925 33.2176" stroke="white" stroke-width="2" stroke-linecap="round" stroke-linejoin="round"/>
<path d="M66.8428 39.3311C67.9169 39.3311 68.9471 39.7605 69.7066 40.5248C70.4661 41.2891 70.8928 42.3258 70.8928 43.4067" stroke="white" stroke-width="2" stroke-linecap="round" stroke-linejoin="round"/>
<path d="M66.8428 31.1797C70.0652 31.1797 73.1556 32.4679 75.4342 34.7609C77.7128 37.0539 78.9929 40.1639 78.9929 43.4067" stroke="white" stroke-width="2" stroke-linecap="round" stroke-linejoin="round"/>
</svg>
