<svg width="40" height="30" viewBox="0 0 40 30" fill="none" xmlns="http://www.w3.org/2000/svg">
<path d="M0.834908 2.43406C6.32475 7.08336 15.9577 15.2629 18.789 17.8133C19.169 18.1575 19.5767 18.3325 19.9999 18.3325C20.4223 18.3325 20.8292 18.1591 21.2084 17.8166C24.0421 15.2637 33.6751 7.08336 39.165 2.43406C39.5068 2.14516 39.5589 1.63734 39.2822 1.28414C38.6425 0.467969 37.6887 0 36.6665 0H3.33327C2.31116 0 1.35733 0.467969 0.717721 1.28422C0.441002 1.63734 0.493111 2.14516 0.834908 2.43406Z" fill="#1228F0"/>
<path d="M39.5166 4.95361C39.2212 4.81611 38.8737 4.86408 38.628 5.07408C32.5398 10.2352 24.7697 16.8506 22.325 19.0535C20.9529 20.2921 19.0486 20.2921 17.6733 19.0519C15.0675 16.7041 6.34188 9.28626 1.37203 5.074C1.12461 4.864 0.776328 4.81767 0.483359 4.95353C0.188828 5.09033 0 5.38493 0 5.70962V26.6667C0 28.5051 1.49492 30 3.33336 30H36.6667C38.5051 30 40 28.5051 40 26.6667V5.70962C40 5.38493 39.8112 5.08954 39.5166 4.95361Z" fill="#1228F0"/>
</svg>
