<svg width="21" height="30" viewBox="0 0 21 30" fill="none" xmlns="http://www.w3.org/2000/svg">
<path d="M19.196 5.13735C17.3753 1.99532 14.1414 0.0757324 10.5452 0.00237304C10.3917 -0.000791015 10.2372 -0.000791015 10.0836 0.00237304C6.48746 0.0757324 3.25356 1.99532 1.43282 5.13735C-0.428237 8.34899 -0.479155 12.2068 1.29659 15.457L8.73582 29.0735C8.73916 29.0795 8.7425 29.0855 8.74595 29.0915C9.07326 29.6604 9.65961 30 10.3145 30C10.9693 30 11.5557 29.6603 11.8829 29.0915C11.8864 29.0855 11.8897 29.0795 11.8931 29.0735L19.3323 15.457C21.1079 12.2068 21.057 8.34899 19.196 5.13735ZM10.3144 13.5938C7.98816 13.5938 6.09564 11.7012 6.09564 9.37502C6.09564 7.04879 7.98816 5.15627 10.3144 5.15627C12.6406 5.15627 14.5331 7.04879 14.5331 9.37502C14.5331 11.7012 12.6407 13.5938 10.3144 13.5938Z" fill="#1228F0"/>
</svg>
